<?xml version="1.0" encoding="utf-8"?>
<!-- Generator: Adobe Illustrator 15.1.0, SVG Export Plug-In  -->
<!DOCTYPE svg PUBLIC "-//W3C//DTD SVG 1.1//EN" "http://www.w3.org/Graphics/SVG/1.1/DTD/svg11.dtd" [
	<!ENTITY ns_flows "http://ns.adobe.com/Flows/1.0/">
]>
<svg version="1.1"
	 xmlns="http://www.w3.org/2000/svg" xmlns:xlink="http://www.w3.org/1999/xlink" xmlns:a="http://ns.adobe.com/AdobeSVGViewerExtensions/3.0/"
	 x="0px" y="0px" width="523px" height="116px" viewBox="0.001 -1.819 523 116" enable-background="new 0.001 -1.819 523 116"
	 xml:space="preserve">
<defs>
</defs>
<path stroke="#000000" stroke-width="3" stroke-miterlimit="10" d="M336.697,95.167c-0.448,2.541-1.497,4.974-3.146,7.295
	c-1.649,2.323-3.67,4.362-6.063,6.124c-2.393,1.76-5.056,3.152-7.988,4.179c-2.933,1.024-5.912,1.539-8.936,1.539
	c-1.835,0-3.57-0.208-5.208-0.623s-3.189-0.892-4.657-1.428c-1.467-0.537-2.839-1.05-4.116-1.538
	c-1.278-0.487-2.474-0.806-3.588-0.952c-0.546,0-1.11,0.392-1.694,1.172c-0.584,0.781-1.081,1.489-1.489,2.124h-2.455l4.223-23.95
	h2.455c0.041,3.418,0.518,6.408,1.43,8.973c0.911,2.563,2.144,4.712,3.697,6.445s3.369,3.039,5.445,3.918s4.329,1.318,6.759,1.318
	c1.834,0,3.517-0.268,5.05-0.806c1.532-0.537,2.874-1.256,4.025-2.16c1.151-0.903,2.104-1.952,2.861-3.149
	c0.756-1.196,1.251-2.454,1.483-3.772c0.342-1.66,0.424-3.186,0.249-4.577c-0.177-1.393-0.766-2.759-1.769-4.103
	c-1.003-1.343-2.501-2.758-4.494-4.248c-1.994-1.488-4.686-3.161-8.077-5.017c-3.293-1.855-5.975-3.589-8.045-5.2
	c-2.071-1.611-3.642-3.247-4.713-4.907s-1.723-3.37-1.959-5.127c-0.236-1.758-0.172-3.662,0.19-5.714
	c0.438-2.489,1.333-4.82,2.684-6.994c1.35-2.171,3.107-4.064,5.276-5.676c2.168-1.611,4.71-2.88,7.625-3.808
	c2.915-0.927,6.158-1.392,9.728-1.392c1.537,0,3.038,0.136,4.504,0.403c1.464,0.269,2.838,0.562,4.121,0.879
	c1.282,0.318,2.422,0.611,3.415,0.879c0.994,0.269,1.788,0.403,2.383,0.403c0.693,0,1.3-0.134,1.819-0.403
	c0.519-0.268,1.179-0.989,1.979-2.161h2.454l-4.017,22.779h-2.454c-0.255-3.613-0.792-6.616-1.609-9.009
	c-0.817-2.392-1.87-4.296-3.157-5.713c-1.288-1.416-2.807-2.428-4.559-3.039c-1.751-0.61-3.694-0.916-5.825-0.916
	c-4.563,0-8.041,0.819-10.437,2.457c-2.397,1.638-3.848,3.751-4.354,6.341c-0.282,1.32-0.397,2.604-0.344,3.85
	c0.052,1.247,0.388,2.445,1.002,3.594c0.616,1.148,1.56,2.261,2.833,3.336c1.272,1.076,3.006,2.15,5.195,3.227l10.102,5.133
	c4.743,2.346,8.143,5.205,10.201,8.578C336.792,87.103,337.447,90.914,336.697,95.167z"/>
<path stroke="#000000" stroke-width="3" stroke-miterlimit="10" d="M416.151,77.316c-0.509,2.882-1.334,5.799-2.474,8.752
	c-1.143,2.956-2.573,5.8-4.294,8.532c-1.722,2.735-3.735,5.3-6.041,7.691c-2.307,2.393-4.856,4.48-7.649,6.262
	c-2.794,1.783-5.842,3.187-9.146,4.212s-6.815,1.538-10.534,1.538c-4.76,0-8.942-0.952-12.549-2.856
	c-3.605-1.904-6.551-4.468-8.833-7.69c-2.283-3.223-3.83-6.958-4.643-11.206c-0.813-4.248-0.811-8.69,0.007-13.33
	c0.801-4.541,2.338-8.973,4.613-13.294c2.273-4.32,5.132-8.166,8.578-11.536c3.444-3.369,7.383-6.09,11.814-8.166
	c4.432-2.075,9.201-3.113,14.308-3.113c4.909,0,9.217,0.879,12.923,2.637c3.706,1.758,6.737,4.175,9.097,7.25
	c2.358,3.077,3.961,6.703,4.813,10.877C416.99,68.052,416.994,72.531,416.151,77.316z M401.323,82.956
	c0.878-4.98,1.199-9.619,0.966-13.916c-0.235-4.296-0.991-8.021-2.271-11.169c-1.278-3.15-3.072-5.627-5.382-7.435
	c-2.31-1.806-5.1-2.71-8.372-2.71c-1.934,0-3.979,0.416-6.133,1.245c-2.154,0.831-4.222,2.223-6.201,4.175
	c-1.981,1.953-3.768,4.553-5.355,7.8c-1.589,3.248-2.813,7.313-3.675,12.194c-0.844,4.787-1.141,9.353-0.891,13.697
	c0.249,4.346,1.028,8.154,2.336,11.426c1.307,3.271,3.117,5.872,5.431,7.8c2.311,1.93,5.104,2.894,8.377,2.894
	c2.479,0,4.813-0.451,7.007-1.355c2.191-0.903,4.188-2.38,5.987-4.431c1.799-2.051,3.4-4.735,4.805-8.057
	C399.355,91.795,400.479,87.742,401.323,82.956z"/>
<path stroke="#000000" stroke-width="3" stroke-miterlimit="10" d="M496.574,20.48c-0.112,0.635-0.379,1.307-0.802,2.014
	c-0.423,0.708-0.96,1.368-1.613,1.977c-0.654,0.612-1.386,1.112-2.198,1.501c-0.813,0.392-1.641,0.586-2.483,0.586
	c-1.299,0.049-2.348-0.255-3.149-0.91c-0.802-0.656-1.524-1.469-2.172-2.442c-0.647-0.97-1.255-2.026-1.821-3.167
	c-0.568-1.142-1.237-2.197-2.008-3.169c-0.771-0.97-1.719-1.784-2.842-2.44c-1.124-0.655-2.554-0.983-4.289-0.983
	c-2.38,0-4.342,0.511-5.886,1.534s-2.854,2.62-3.93,4.788c-1.078,2.167-1.999,4.933-2.765,8.293
	c-0.768,3.361-1.566,7.404-2.399,12.13l-0.851,4.822h17.553l-0.931,5.273h-17.552l-7.762,44.019
	c-0.551,3.126-0.854,5.688-0.909,7.69c-0.056,2.003,0.269,3.395,0.975,4.175c1.266,2.101,3.535,3.149,6.808,3.149h6.098l-0.49,2.783
	h-41.053l0.49-2.783h3.049c1.19,0,2.354-0.134,3.492-0.403c1.138-0.267,2.363-0.891,3.676-1.867c0.69-0.537,1.285-1.099,1.785-1.685
	c0.499-0.586,0.943-1.342,1.33-2.271c0.387-0.927,0.751-2.088,1.098-3.479c0.344-1.392,0.705-3.16,1.084-5.31l7.762-44.019h-13.313
	l0.93-5.273h13.313l0.801-4.541c0.896-5.077,2.256-9.399,4.081-12.963c1.826-3.564,3.887-6.555,6.183-8.973
	c2.298-2.417,4.701-4.333,7.214-5.75c2.513-1.416,4.899-2.49,7.16-3.223c2.261-0.732,4.265-1.195,6.011-1.392
	c1.744-0.194,3.013-0.292,3.806-0.292c2.182,0,4.316,0.342,6.401,1.025c2.086,0.684,3.932,1.599,5.54,2.747
	c1.607,1.147,2.848,2.479,3.722,3.991C496.588,17.161,496.875,18.771,496.574,20.48z"/>
<path stroke="#000000" stroke-width="3" stroke-miterlimit="10" d="M513.305,99.875c-1.232,2.49-2.678,4.64-4.335,6.445
	c-1.657,1.808-3.358,3.296-5.101,4.468c-1.744,1.172-3.499,2.051-5.262,2.637c-1.766,0.586-3.391,0.879-4.878,0.879
	c-1.637,0-3.209-0.22-4.718-0.658c-1.511-0.44-2.795-1.306-3.855-2.598c-1.063-1.292-1.786-3.097-2.17-5.413
	c-0.385-2.316-0.246-5.353,0.416-9.108l8.191-46.456h-10.933l0.401-2.276c2.163-0.735,4.533-2.02,7.113-3.856
	c2.58-1.835,5.035-3.88,7.365-6.133c0.842-0.832,1.599-1.615,2.274-2.35c0.674-0.734,1.427-1.627,2.258-2.68
	c0.829-1.052,1.755-2.362,2.774-3.93c1.021-1.566,2.263-3.55,3.727-5.948h2.231l-3.899,22.119h15.988l-0.891,5.054h-15.989
	l-7.88,44.686c-0.387,2.193-0.531,3.999-0.434,5.414c0.096,1.415,0.382,2.537,0.856,3.367c0.473,0.831,1.089,1.417,1.847,1.758
	c0.758,0.342,1.603,0.538,2.537,0.586c1.816,0.099,3.529-0.402,5.136-1.502c1.606-1.099,3.024-2.6,4.253-4.504H513.305z"/>
<path fill="#F37221" stroke="#F37221" stroke-width="3" stroke-miterlimit="10" d="M2.856,112.088v-2.783
	c2.099,0,3.82-0.146,5.164-0.439c1.342-0.293,2.392-0.843,3.149-1.648c0.756-0.806,1.269-1.928,1.538-3.369
	c0.268-1.439,0.403-3.283,0.403-5.529V62.43c0-3.223-0.355-5.664-1.062-7.324c-0.708-1.66-2.04-2.49-3.992-2.49
	c-0.685,0-1.441,0.098-2.271,0.293c-0.831,0.195-1.807,0.488-2.93,0.879L1.904,51.15l20.288-8.057h3.149v55.225
	c0,2.246,0.146,4.09,0.439,5.529c0.293,1.441,0.817,2.563,1.575,3.369c0.756,0.806,1.806,1.355,3.149,1.648
	c1.342,0.293,3.063,0.439,5.164,0.439v2.783H2.856z"/>
<path fill="#F37221" stroke="#F37221" stroke-width="3" stroke-miterlimit="10" d="M26.66,29.58c0,2.109-0.696,3.902-2.087,5.373
	c-1.392,1.472-3.162,2.207-5.31,2.207c-2.149,0-3.931-0.71-5.347-2.134c-1.417-1.423-2.124-3.237-2.124-5.446
	c0-1.079,0.194-2.072,0.586-2.98c0.39-0.908,0.927-1.681,1.611-2.319c0.683-0.638,1.476-1.14,2.38-1.509
	c0.903-0.368,1.868-0.553,2.893-0.553s1.989,0.197,2.893,0.59c0.903,0.393,1.685,0.92,2.344,1.582
	c0.659,0.663,1.183,1.436,1.575,2.319C26.464,27.594,26.66,28.551,26.66,29.58z"/>
<path fill="#F37221" stroke="#F37221" stroke-width="3" stroke-miterlimit="10" d="M87.704,112.088v-2.78
	c2.49,0,4.455-0.157,5.896-0.476c1.439-0.316,2.538-0.926,3.296-1.828c0.756-0.902,1.232-2.158,1.428-3.768
	c0.194-1.609,0.293-3.707,0.293-6.291v-27.36c0-3.023-0.17-5.644-0.512-7.862c-0.341-2.22-0.926-4.035-1.753-5.45
	c-0.829-1.415-1.9-2.463-3.215-3.146s-2.971-1.025-4.967-1.025c-2.824,0-5.685,0.781-8.583,2.342
	c-2.897,1.561-5.808,3.951-8.729,7.169v35.333c0,2.634,0.11,4.756,0.33,6.364c0.22,1.609,0.72,2.853,1.501,3.731
	c0.78,0.877,1.892,1.475,3.333,1.791c1.439,0.318,3.38,0.476,5.823,0.476v2.78H48.519v-2.783c2.099,0,3.809-0.158,5.127-0.477
	c1.318-0.316,2.344-0.939,3.076-1.867s1.232-2.197,1.501-3.809c0.268-1.611,0.403-3.687,0.403-6.227V71.951
	c0-4.004-0.049-7.152-0.146-9.449c-0.099-2.294-0.232-4.052-0.403-5.273c-0.172-1.219-0.392-2.051-0.659-2.49
	c-0.269-0.439-0.599-0.805-0.989-1.098c-1.611-1.416-4.248-1.367-7.91,0.146l-1.172-2.637l20.508-8.057h3.003v13.988
	c7.958-9.325,15.478-13.988,22.559-13.988c3.271,0,6.03,0.598,8.276,1.794c2.245,1.197,4.052,2.894,5.42,5.091
	c1.366,2.197,2.355,4.834,2.966,7.91c0.61,3.076,0.916,6.494,0.916,10.254v28.783c0,2.49,0.121,4.541,0.366,6.152
	c0.244,1.611,0.732,2.869,1.465,3.772c0.732,0.904,1.782,1.538,3.149,1.904c1.366,0.366,3.173,0.55,5.42,0.55v2.783H87.704z"/>
<path fill="#F37221" stroke="#F37221" stroke-width="3" stroke-miterlimit="10" d="M168.927,112.088v-2.78
	c2.49,0,4.455-0.157,5.896-0.476c1.439-0.316,2.538-0.926,3.296-1.828c0.756-0.902,1.232-2.158,1.428-3.768
	c0.194-1.609,0.293-3.707,0.293-6.291v-27.36c0-3.023-0.17-5.644-0.512-7.862c-0.341-2.22-0.926-4.035-1.753-5.45
	c-0.829-1.415-1.9-2.463-3.215-3.146s-2.971-1.025-4.967-1.025c-2.824,0-5.686,0.781-8.583,2.342s-5.808,3.951-8.729,7.169v35.333
	c0,2.634,0.11,4.756,0.33,6.364c0.22,1.609,0.72,2.853,1.501,3.731c0.78,0.877,1.892,1.475,3.333,1.791
	c1.439,0.318,3.38,0.476,5.823,0.476v2.78h-33.325v-2.783c2.099,0,3.809-0.158,5.127-0.477c1.318-0.316,2.344-0.939,3.076-1.867
	s1.232-2.197,1.501-3.809c0.268-1.611,0.403-3.687,0.403-6.227V71.951c0-4.004-0.049-7.152-0.146-9.449
	c-0.099-2.294-0.232-4.052-0.403-5.273c-0.172-1.219-0.392-2.051-0.659-2.49c-0.269-0.439-0.599-0.805-0.989-1.098
	c-1.611-1.416-4.248-1.367-7.91,0.146l-1.172-2.637l20.508-8.057h3.003v13.988c7.958-9.325,15.478-13.988,22.559-13.988
	c3.271,0,6.03,0.598,8.276,1.794c2.245,1.197,4.053,2.894,5.42,5.091c1.366,2.197,2.355,4.834,2.967,7.91
	c0.609,3.076,0.915,6.494,0.915,10.254v28.783c0,2.49,0.121,4.541,0.366,6.152c0.244,1.611,0.732,2.869,1.465,3.772
	c0.732,0.904,1.782,1.538,3.149,1.904c1.366,0.366,3.174,0.55,5.42,0.55v2.783H168.927z"/>
<path fill="#F37221" stroke="#F37221" stroke-width="3" stroke-miterlimit="10" d="M274.885,77.297c0,2.883-0.307,5.799-0.916,8.753
	c-0.611,2.955-1.527,5.799-2.746,8.532c-1.221,2.736-2.76,5.299-4.615,7.691s-4.004,4.48-6.445,6.262
	c-2.441,1.783-5.199,3.186-8.275,4.211c-3.077,1.025-6.446,1.539-10.108,1.539c-4.688,0-8.973-0.953-12.854-2.857
	c-3.883-1.904-7.228-4.467-10.035-7.689s-4.98-6.959-6.518-11.207c-1.539-4.248-2.308-8.689-2.308-13.33
	c0-4.541,0.744-8.972,2.233-13.293s3.638-8.166,6.445-11.535s6.214-6.091,10.218-8.167c4.003-2.075,8.521-3.112,13.55-3.112
	c4.834,0,9.229,0.879,13.184,2.637s7.361,4.174,10.217,7.25c2.857,3.076,5.064,6.702,6.629,10.877
	C274.104,68.032,274.885,72.513,274.885,77.297z M261.262,82.938c0-4.98-0.488-9.619-1.465-13.916
	c-0.979-4.297-2.369-8.021-4.176-11.17s-4.004-5.627-6.591-7.434c-2.589-1.807-5.493-2.711-8.716-2.711
	c-1.904,0-3.846,0.416-5.822,1.246c-1.979,0.83-3.772,2.223-5.384,4.174c-1.611,1.954-2.918,4.555-3.919,7.801
	c-1.001,3.248-1.501,7.313-1.501,12.195c0,4.785,0.5,9.351,1.501,13.695c1.001,4.348,2.429,8.156,4.285,11.426
	c1.855,3.272,4.089,5.873,6.701,7.801c2.612,1.93,5.53,2.893,8.753,2.893c2.441,0,4.662-0.45,6.666-1.354
	c2.002-0.903,3.709-2.38,5.127-4.431c1.416-2.051,2.527-4.736,3.332-8.057C260.86,91.775,261.262,87.723,261.262,82.938z"/>
<path fill="none" stroke="#F37221" stroke-width="2" stroke-miterlimit="10" d="M19.209,14.889c8.192,0,14.833,6.641,14.833,14.834"
	/>
<path fill="none" stroke="#F37221" stroke-width="2" stroke-miterlimit="10" d="M19.209,7.973c12.012,0,21.75,9.736,21.75,21.75"/>
<path fill="none" stroke="#F37221" stroke-width="2" stroke-miterlimit="10" d="M19.21,1c15.861,0,28.722,12.859,28.722,28.723"/>
</svg>
